<svg width="512" height="512" viewBox="0 0 512 512" fill="none" xmlns="http://www.w3.org/2000/svg">
<path d="M493.973 389.323C494.723 388.481 495.287 387.49 495.627 386.414C495.967 385.339 496.076 384.203 495.947 383.083L471.947 175.083C471.722 173.133 470.788 171.334 469.323 170.028C467.857 168.722 465.963 168 464 168H424V152C424 139.27 418.943 127.061 409.941 118.059C400.939 109.057 388.73 104 376 104C363.27 104 351.061 109.057 342.059 118.059C333.057 127.061 328 139.27 328 152H312V128C312 113.148 306.1 98.9041 295.598 88.402C285.096 77.9 270.852 72 256 72C241.148 72 226.904 77.9 216.402 88.402C205.9 98.9041 200 113.148 200 128V152H184C184 139.27 178.943 127.061 169.941 118.059C160.939 109.057 148.73 104 136 104C123.27 104 111.061 109.057 102.059 118.059C93.0571 127.061 88 139.27 88 152V168H48C46.0371 168 44.1427 168.722 42.6774 170.028C41.212 171.334 40.278 173.133 40.053 175.083L16.053 383.083C15.9237 384.204 16.0328 385.339 16.3732 386.414C16.7135 387.489 17.2774 388.481 18.0279 389.323C18.7783 390.165 19.6984 390.839 20.7276 391.3C21.7569 391.761 22.872 392 24 392H122.642L119.033 431.268C118.931 432.376 119.062 433.492 119.416 434.547C119.77 435.601 120.34 436.57 121.09 437.392C121.839 438.214 122.752 438.87 123.77 439.319C124.788 439.768 125.888 440 127 440H384C385.11 440 386.207 439.769 387.222 439.322C388.238 438.875 389.149 438.222 389.899 437.404C390.648 436.585 391.219 435.62 391.576 434.569C391.932 433.519 392.066 432.405 391.969 431.3L388.5 392H488C489.128 392 490.243 391.762 491.273 391.3C492.302 390.839 493.222 390.165 493.973 389.323ZM376 120C384.484 120.01 392.618 123.384 398.617 129.383C404.616 135.382 407.99 143.516 408 152V168H368.737L367.969 159.3C367.794 157.307 366.879 155.452 365.403 154.101C363.928 152.75 362 152 360 152H344C344.009 143.516 347.384 135.382 353.383 129.383C359.382 123.384 367.516 120.01 376 120V120ZM216 128C216 117.391 220.214 107.217 227.716 99.7157C235.217 92.2143 245.391 88 256 88C266.609 88 276.783 92.2143 284.284 99.7157C291.786 107.217 296 117.391 296 128V152H216V128ZM104 152C104 143.513 107.371 135.374 113.373 129.373C119.374 123.371 127.513 120 136 120C144.487 120 152.626 123.371 158.627 129.373C164.629 135.374 168 143.513 168 152H152C150.005 152 148.082 152.745 146.608 154.09C145.134 155.434 144.216 157.281 144.033 159.268L143.233 168H104V152ZM32.977 376L55.13 184H88V200C88 202.122 88.8428 204.157 90.3431 205.657C91.8434 207.157 93.8782 208 96 208C98.1217 208 100.157 207.157 101.657 205.657C103.157 204.157 104 202.122 104 200V184H141.76L124.113 376H32.977ZM135.769 424L159.3 168H200V200C200 202.122 200.843 204.157 202.343 205.657C203.843 207.157 205.878 208 208 208C210.122 208 212.157 207.157 213.657 205.657C215.157 204.157 216 202.122 216 200V168H296V200C296 202.122 296.843 204.157 298.343 205.657C299.843 207.157 301.878 208 304 208C306.122 208 308.157 207.157 309.657 205.657C311.157 204.157 312 202.122 312 200V168H352.675L375.263 424H135.769ZM387.09 376L370.148 184H408V200C408 202.122 408.843 204.157 410.343 205.657C411.843 207.157 413.878 208 416 208C418.122 208 420.157 207.157 421.657 205.657C423.157 204.157 424 202.122 424 200V184H456.87L479.023 376H387.09Z" fill="black"/>
<path d="M208 240C212.418 240 216 236.418 216 232C216 227.582 212.418 224 208 224C203.582 224 200 227.582 200 232C200 236.418 203.582 240 208 240Z" fill="black"/>
<path d="M96 240C100.418 240 104 236.418 104 232C104 227.582 100.418 224 96 224C91.5817 224 88 227.582 88 232C88 236.418 91.5817 240 96 240Z" fill="black"/>
<path d="M304 240C308.418 240 312 236.418 312 232C312 227.582 308.418 224 304 224C299.582 224 296 227.582 296 232C296 236.418 299.582 240 304 240Z" fill="black"/>
<path d="M416 240C420.418 240 424 236.418 424 232C424 227.582 420.418 224 416 224C411.582 224 408 227.582 408 232C408 236.418 411.582 240 416 240Z" fill="black"/>
</svg>
