<svg width="207" height="400" viewBox="0 0 207 400" fill="none" xmlns="http://www.w3.org/2000/svg">
<g clip-path="url(#clip0)">
<path d="M64.7869 57.4092H22.6589V91.8594H71.5969V102.341H9.84023V5.13305H70.9292V15.6817H22.6589V46.9273H64.7869V57.4092ZM155.986 5.13305V71.2293C155.942 80.3982 153.049 87.898 147.307 93.7288C141.61 99.5595 133.865 102.831 124.073 103.543L120.668 103.677C110.031 103.677 101.552 100.806 95.2313 95.064C88.911 89.3223 85.7063 81.4219 85.6173 71.3629V5.13305H98.3024V70.9623C98.3024 77.9947 100.239 83.4694 104.111 87.3862C107.983 91.2585 113.502 93.1947 120.668 93.1947C127.923 93.1947 133.465 91.2585 137.293 87.3862C141.165 83.5139 143.101 78.0615 143.101 71.029V5.13305H155.986Z" fill="black"/>
<path d="M77.0047 161.174H45.7592V247.834H33.0073V161.174H1.82856V150.626H77.0047V161.174ZM164.332 202.368C164.332 211.893 162.73 220.216 159.525 227.337C156.32 234.414 151.78 239.822 145.905 243.561C140.03 247.3 133.175 249.169 125.342 249.169C117.686 249.169 110.899 247.3 104.979 243.561C99.0591 239.778 94.4524 234.414 91.1587 227.471C87.9095 220.483 86.2404 212.405 86.1514 203.236V196.225C86.1514 186.879 87.776 178.622 91.0252 171.456C94.2743 164.29 98.8588 158.815 104.779 155.032C110.743 151.204 117.553 149.29 125.208 149.29C132.997 149.29 139.852 151.182 145.772 154.965C151.736 158.704 156.32 164.157 159.525 171.323C162.73 178.444 164.332 186.745 164.332 196.225V202.368ZM151.58 196.092C151.58 184.564 149.266 175.729 144.637 169.587C140.008 163.4 133.532 160.306 125.208 160.306C117.108 160.306 110.721 163.4 106.047 169.587C101.418 175.729 99.0368 184.275 98.9033 195.224V202.368C98.9033 213.54 101.24 222.33 105.914 228.74C110.631 235.104 117.108 238.287 125.342 238.287C133.621 238.287 140.03 235.282 144.57 229.274C149.11 223.22 151.446 214.563 151.58 203.302V196.092ZM145.638 142.748V143.415H135.423L125.409 132.065L115.461 143.415H105.246V142.614L121.67 124.454H129.147L145.638 142.748Z" fill="black"/>
<path d="M84.6158 331.77C84.6158 341.295 83.0135 349.618 79.8088 356.74C76.6041 363.817 72.0642 369.225 66.189 372.963C60.3138 376.702 53.4593 378.572 45.6257 378.572C37.9701 378.572 31.1824 376.702 25.2627 372.963C19.343 369.18 14.7363 363.817 11.4426 356.873C8.19339 349.885 6.52429 341.807 6.43527 332.638V325.628C6.43527 316.281 8.05986 308.024 11.309 300.858C14.5582 293.692 19.1427 288.218 25.0624 284.434C31.0266 280.607 37.8366 278.693 45.4922 278.693C53.2813 278.693 60.1357 280.584 66.0554 284.368C72.0197 288.107 76.6041 293.559 79.8088 300.725C83.0135 307.846 84.6158 316.147 84.6158 325.628V331.77ZM71.8639 325.494C71.8639 313.966 69.5494 305.131 64.9205 298.989C60.2915 292.802 53.8154 289.709 45.4922 289.709C37.3915 289.709 31.0044 292.802 26.3309 298.989C21.702 305.131 19.3207 313.677 19.1872 324.626V331.77C19.1872 342.942 21.5239 351.733 26.1974 358.142C30.9154 364.507 37.3915 367.689 45.6257 367.689C53.9044 367.689 60.3138 364.685 64.8537 358.676C69.3936 352.623 71.7304 343.966 71.8639 332.705V325.494ZM178.553 377.236H165.667L116.729 302.327V377.236H103.844V280.028H116.729L165.801 355.271V280.028H178.553V377.236Z" fill="black"/>
<path d="M88.6103 338.43C88.5103 358.26 73.5303 374.35 54.4103 374.35C35.4903 374.35 20.6103 358.26 20.5103 338.43C20.6103 318.6 35.4903 302.51 54.4103 302.51C73.5303 302.5 88.5003 318.59 88.6103 338.43ZM83.6503 338.43C83.6503 320.92 70.4903 307.56 54.4003 307.56C38.8203 307.56 25.6603 320.92 25.5603 338.43C25.6603 355.73 38.8203 369.39 54.4003 369.39C70.4903 369.39 83.6503 355.73 83.6503 338.43Z" fill="black"/>
<path d="M54.6598 313.9C67.5798 313.9 77.7398 324.89 77.8098 338.43C77.7398 351.97 67.5798 362.96 54.6598 362.96C41.5998 362.96 31.3698 351.97 31.2998 338.43C31.3698 324.88 41.5998 313.9 54.6598 313.9ZM54.6598 359.57C65.2998 359.57 74.2798 350.24 74.3498 338.43C74.2798 326.48 65.2998 317.35 54.6598 317.35C43.6698 317.35 34.6898 326.47 34.6898 338.43C34.6898 350.24 43.6698 359.57 54.6598 359.57Z" fill="black"/>
<path d="M54.2402 353.46C62.2484 353.46 68.7402 346.659 68.7402 338.27C68.7402 329.881 62.2484 323.08 54.2402 323.08C46.2321 323.08 39.7402 329.881 39.7402 338.27C39.7402 346.659 46.2321 353.46 54.2402 353.46Z" fill="black"/>
<path d="M144.24 223.46C152.248 223.46 158.74 216.659 158.74 208.27C158.74 199.881 152.248 193.08 144.24 193.08C136.232 193.08 129.74 199.881 129.74 208.27C129.74 216.659 136.232 223.46 144.24 223.46Z" fill="black"/>
</g>
<defs>
<clipPath id="clip0">
<rect width="207" height="400" fill="white"/>
</clipPath>
</defs>
</svg>
