<svg width="192" height="371" viewBox="0 0 192 371" fill="none" xmlns="http://www.w3.org/2000/svg">
<g clip-path="url(#clip0)">
<path d="M7.39014 3.28003C7.40052 2.41334 7.74942 1.58508 8.3623 0.972193C8.97519 0.359309 9.80345 0.0104075 10.6701 2.69522e-05H59.8901C60.3227 -0.00672311 60.7523 0.0735052 61.1533 0.235951C61.5543 0.398396 61.9186 0.639748 62.2245 0.945679C62.5304 1.25161 62.7718 1.61588 62.9342 2.01688C63.0967 2.41788 63.1769 2.84743 63.1701 3.28003C63.1905 3.72274 63.1206 4.16498 62.9648 4.57986C62.8089 4.99475 62.5704 5.37363 62.2636 5.69348C61.9569 6.01334 61.5883 6.26751 61.1803 6.44054C60.7722 6.61356 60.3333 6.70185 59.8901 6.70003H14.0901V44.58H54.1501C55.0386 44.58 55.8907 44.933 56.5189 45.5612C57.1472 46.1895 57.5001 47.0416 57.5001 47.93C57.5001 48.8185 57.1472 49.6706 56.5189 50.2988C55.8907 50.9271 55.0386 51.28 54.1501 51.28H14.0901V89.01H59.8901C60.3333 89.0082 60.7722 89.0965 61.1803 89.2695C61.5883 89.4426 61.9569 89.6967 62.2636 90.0166C62.5704 90.3364 62.8089 90.7153 62.9648 91.1302C63.1206 91.5451 63.1905 91.9873 63.1701 92.43C63.1769 92.8626 63.0967 93.2922 62.9342 93.6932C62.7718 94.0942 62.5304 94.4585 62.2245 94.7644C61.9186 95.0703 61.5543 95.3117 61.1533 95.4741C60.7523 95.6366 60.3227 95.7168 59.8901 95.71H10.4001C9.57963 95.6397 8.81559 95.2634 8.2598 94.6557C7.70401 94.048 7.39713 93.2535 7.40014 92.43L7.39014 3.28003Z" fill="#3E929E"/>
<path d="M88.6099 3.28005C88.6099 2.39158 88.9628 1.53949 89.5911 0.911245C90.2193 0.282999 91.0714 -0.0699463 91.9599 -0.0699463C92.8483 -0.0699463 93.7004 0.282999 94.3287 0.911245C94.9569 1.53949 95.3099 2.39158 95.3099 3.28005V57.0201C95.3099 65.507 98.6813 73.6463 104.682 79.6475C110.684 85.6486 118.823 89.0201 127.31 89.0201C135.797 89.0201 143.936 85.6486 149.937 79.6475C155.938 73.6463 159.31 65.507 159.31 57.0201V3.28005C159.32 2.40994 159.672 1.57871 160.289 0.965275C160.906 0.351838 161.74 0.00523248 162.61 5.34058e-05C163.498 -0.0160506 164.356 0.319904 164.997 0.934505C165.637 1.54911 166.009 2.39238 166.03 3.28005V57.0201C166.03 67.2839 161.953 77.1274 154.695 84.3851C147.437 91.6427 137.594 95.7201 127.33 95.7201C117.066 95.7201 107.222 91.6427 99.9648 84.3851C92.7072 77.1274 88.6299 67.2839 88.6299 57.0201L88.6099 3.28005Z" fill="#3E929E"/>
<path d="M32.1399 152.19H3.28994C2.40147 152.19 1.54938 151.837 0.921134 151.209C0.292887 150.581 -0.0600586 149.728 -0.0600586 148.84C-0.0600586 147.952 0.292887 147.099 0.921134 146.471C1.54938 145.843 2.40147 145.49 3.28994 145.49H67.5499C68.4384 145.49 69.2905 145.843 69.9187 146.471C70.547 147.099 70.8999 147.952 70.8999 148.84C70.8999 149.728 70.547 150.581 69.9187 151.209C69.2905 151.837 68.4384 152.19 67.5499 152.19H38.6999V237.93C38.6999 238.8 38.3544 239.634 37.7393 240.249C37.1241 240.864 36.2899 241.21 35.4199 241.21C34.55 241.21 33.7158 240.864 33.1006 240.249C32.4855 239.634 32.1399 238.8 32.1399 237.93V152.19Z" fill="#3E929E"/>
<path d="M91.75 192.64C91.89 165.84 112.12 144.1 137.97 144.1C163.54 144.1 183.64 165.84 183.77 192.64C183.64 219.44 163.54 241.18 137.97 241.18C112.12 241.21 91.89 219.47 91.75 192.64ZM98.45 192.64C98.45 216.02 116.23 234.48 137.97 234.48C158.97 234.48 176.8 216.02 176.97 192.64C176.83 168.98 159.05 150.93 137.97 150.93C116.23 150.96 98.45 169.01 98.45 192.64ZM137.69 123.17L146.31 131.11C146.884 131.72 147.586 132.196 148.366 132.502C149.146 132.808 149.984 132.937 150.82 132.88C152.05 132.88 152.73 132.2 152.73 131.52C152.728 130.905 152.483 130.316 152.05 129.88L142.21 117.88C140.98 116.38 140.02 115.42 138.38 115.42H137.28C135.64 115.42 134.69 116.42 133.45 117.88L123.61 129.88C123.177 130.316 122.932 130.905 122.93 131.52C122.93 132.2 123.61 132.88 124.7 132.88C125.516 132.936 126.335 132.806 127.094 132.499C127.853 132.193 128.532 131.718 129.08 131.11L137.69 123.17Z" fill="#3E929E"/>
<path d="M46.21 274C71.78 274 91.88 295.74 92.02 322.54C91.88 349.34 71.78 371.11 46.21 371.11C20.37 371.11 0.14 349.37 0 322.57C0.14 295.74 20.37 274 46.21 274ZM46.21 364.38C67.27 364.38 85.05 345.92 85.21 322.54C85.08 298.88 67.3 280.83 46.21 280.83C24.47 280.83 6.7 298.83 6.7 322.54C6.7 345.92 24.46 364.38 46.21 364.38Z" fill="#3E929E"/>
<path d="M119.714 287.703V366.053C119.714 366.923 119.368 367.757 118.753 368.373C118.138 368.988 117.304 369.333 116.434 369.333C115.564 369.333 114.73 368.988 114.115 368.373C113.5 367.757 113.154 366.923 113.154 366.053V278.263C112.943 277.597 112.949 276.881 113.17 276.218C113.391 275.556 113.816 274.98 114.384 274.573C115.116 274.086 116.007 273.899 116.873 274.052C117.739 274.205 118.513 274.685 119.034 275.393L177.034 355.793V277.853C177.034 276.965 177.387 276.113 178.015 275.484C178.643 274.856 179.496 274.503 180.384 274.503C181.273 274.503 182.125 274.856 182.753 275.484C183.381 276.113 183.734 276.965 183.734 277.853V366.053C183.728 366.497 183.633 366.935 183.456 367.342C183.28 367.749 183.024 368.118 182.704 368.425C182.384 368.733 182.007 368.974 181.593 369.135C181.179 369.296 180.738 369.374 180.294 369.363C179.795 369.376 179.299 369.272 178.848 369.058C178.396 368.844 178.001 368.527 177.694 368.133C177.564 367.993 177.284 367.853 177.154 367.583L119.714 287.703Z" fill="#3E929E"/>
<path d="M80.07 322.54C79.96 342.37 64.99 358.46 45.86 358.46C26.94 358.46 12.06 342.37 11.96 322.54C12.06 302.7 26.96 286.61 45.86 286.61C64.99 286.61 79.96 302.7 80.07 322.54ZM75.07 322.54C75.07 305.03 61.91 291.67 45.82 291.67C30.24 291.67 17.08 305.03 16.98 322.54C17.08 339.84 30.24 353.54 45.82 353.54C61.95 353.5 75.11 339.84 75.11 322.54H75.07Z" fill="#50D8EB"/>
<path d="M46.1201 298.01C59.0401 298.01 69.2001 309.01 69.2601 322.54C69.3201 336.07 59.0401 347.11 46.1201 347.11C33.2001 347.11 22.8301 336.11 22.7601 322.54C22.6901 308.97 33.0601 298.01 46.1201 298.01ZM46.1201 343.68C56.7601 343.68 65.7401 334.35 65.8101 322.54C65.8801 310.73 56.8101 301.46 46.1201 301.46C35.1201 301.46 26.1201 310.58 26.1201 322.54C26.1201 334.5 35.1301 343.68 46.1201 343.68Z" fill="#3E929E"/>
<path d="M45.6899 337.57C53.6981 337.57 60.1899 330.769 60.1899 322.38C60.1899 313.991 53.6981 307.19 45.6899 307.19C37.6818 307.19 31.1899 313.991 31.1899 322.38C31.1899 330.769 37.6818 337.57 45.6899 337.57Z" fill="#EBC642"/>
<path d="M138.84 207.1C146.848 207.1 153.34 200.299 153.34 191.91C153.34 183.521 146.848 176.72 138.84 176.72C130.832 176.72 124.34 183.521 124.34 191.91C124.34 200.299 130.832 207.1 138.84 207.1Z" fill="#EBC642"/>
</g>
<defs>
<clipPath id="clip0">
<rect width="191.02" height="370.61" fill="white"/>
</clipPath>
</defs>
</svg>
