<svg width="512" height="512" viewBox="0 0 512 512" fill="none" xmlns="http://www.w3.org/2000/svg">
<path d="M511.917 147.432C511.911 147.376 511.898 147.322 511.892 147.266C511.838 146.8 511.768 146.34 511.673 145.888C511.658 145.817 511.635 145.748 511.619 145.677C511.521 145.243 511.409 144.815 511.274 144.396C511.24 144.291 511.197 144.19 511.16 144.086C511.029 143.707 510.889 143.333 510.729 142.968C510.715 142.935 510.705 142.901 510.691 142.869L455.986 20.697C450.356 8.124 437.817 0 424.042 0H87.951C74.183 0 61.647 8.118 56.014 20.681L1.313 142.681C0.447 144.611 0 146.703 0 148.818V197.852C0 227.205 16.712 252.883 41 265.571V477C41 496.299 56.701 512 76 512H436C455.299 512 471 496.299 471 477V265.571C495.288 252.883 512 227.206 512 197.852V149C512 148.47 511.971 147.948 511.917 147.432ZM87.951 30H146.844L123.494 134H38.083L83.388 32.955C84.193 31.16 85.984 30 87.951 30ZM361.346 201.436C359.951 225.14 340.298 244 316.25 244C291.299 244 271 223.701 271 198.75C271 198.623 271 164 271 164H361.346V201.436ZM241 30V134H154.241L177.591 30H241ZM334.408 30L357.759 134H271V30H334.408ZM150.654 201.436C150.654 198 150.654 164 150.654 164H241V198.75C241 223.701 220.701 244 195.75 244C171.702 244 152.049 225.14 150.654 201.436ZM30 164H120.5V198.75C120.5 210.948 115.719 222.385 107.037 230.955C98.357 239.523 86.858 244.129 74.645 243.996C50.027 243.677 30 222.977 30 197.852V164ZM437.355 243.996C425.128 244.127 413.643 239.523 404.963 230.955C396.281 222.385 391.347 210.948 391.347 198.75C391.347 197.483 391.347 164 391.347 164H482V197.852C482 222.977 461.973 243.677 437.355 243.996ZM388.506 134L365.155 30H424.042C426.01 30 427.801 31.161 428.605 32.957L473.848 134H388.506ZM171 362H241V482H171V362ZM271 362H341V482H271V362ZM441 477C441 479.757 438.757 482 436 482H371V362H376C384.284 362 391 355.284 391 347C391 338.716 384.284 332 376 332H136C127.716 332 121 338.716 121 347C121 355.284 127.716 362 136 362H141V482H76C73.243 482 71 479.757 71 477V273.867C72.08 273.928 73.164 273.979 74.255 273.993C94.535 274.264 113.676 266.555 128.111 252.305C130.814 249.637 133.289 246.802 135.528 243.823C149.267 262.133 171.149 274 195.75 274C220.369 274 242.263 262.118 256 243.786C269.737 262.118 291.631 274 316.25 274C340.851 274 362.733 262.133 376.472 243.824C378.71 246.803 381.186 249.638 383.889 252.306C398.324 266.555 417.482 274.277 437.745 273.994C438.837 273.98 439.92 273.93 441.001 273.868V477H441Z" fill="black"/>
</svg>
